<svg width="1440" height="550" viewBox="0 0 1440 550" fill="none" xmlns="http://www.w3.org/2000/svg">
<rect width="1440" height="550" fill="white"/>
<g opacity="0.95">
<rect x="1198" y="-40" width="230" height="230" rx="17" fill="#7DD4F6"/>
<path d="M981 445C981 436.716 987.716 430 996 430H1157V550H981V445Z" fill="#3DA9F7"/>
<rect x="1109" y="38" width="69" height="69" rx="8" fill="#3DA9F7"/>
<rect x="995" y="312" width="69" height="69" rx="8" fill="#3DA9F7"/>
<rect opacity="0.7" x="961" y="275" width="69" height="69" rx="8" fill="#3DA9F7"/>
<rect opacity="0.95" x="1025" y="61" width="69" height="69" rx="8" fill="#F1833B"/>
<rect x="982" y="-20" width="69" height="69" rx="8" fill="#3DA9F7"/>
<rect opacity="0.9" x="1075" y="145" width="260" height="260" rx="30" fill="#3DA9F7"/>
<rect opacity="0.7" x="1268" y="290" width="260" height="260" rx="30" fill="#3DA9F7"/>
<g filter="url(#filter0_d)">
<rect x="1111" y="326" width="136" height="136" rx="20" fill="white"/>
</g>
<g filter="url(#filter1_d)">
<rect x="886" y="80" width="165" height="165" rx="20" fill="white"/>
</g>
<rect x="1109" y="188" width="84" height="84" rx="20" fill="white"/>
</g>
<defs>
<filter id="filter0_d" x="1093" y="310" width="174" height="174" filterUnits="userSpaceOnUse" color-interpolation-filters="sRGB">
<feFlood flood-opacity="0" result="BackgroundImageFix"/>
<feColorMatrix in="SourceAlpha" type="matrix" values="0 0 0 0 0 0 0 0 0 0 0 0 0 0 0 0 0 0 127 0"/>
<feMorphology radius="4" operator="dilate" in="SourceAlpha" result="effect1_dropShadow"/>
<feOffset dx="1" dy="3"/>
<feGaussianBlur stdDeviation="7.5"/>
<feColorMatrix type="matrix" values="0 0 0 0 0 0 0 0 0 0 0 0 0 0 0 0 0 0 0.25 0"/>
<feBlend mode="normal" in2="BackgroundImageFix" result="effect1_dropShadow"/>
<feBlend mode="normal" in="SourceGraphic" in2="effect1_dropShadow" result="shape"/>
</filter>
<filter id="filter1_d" x="853" y="48" width="235" height="235" filterUnits="userSpaceOnUse" color-interpolation-filters="sRGB">
<feFlood flood-opacity="0" result="BackgroundImageFix"/>
<feColorMatrix in="SourceAlpha" type="matrix" values="0 0 0 0 0 0 0 0 0 0 0 0 0 0 0 0 0 0 127 0"/>
<feMorphology radius="5" operator="dilate" in="SourceAlpha" result="effect1_dropShadow"/>
<feOffset dx="2" dy="3"/>
<feGaussianBlur stdDeviation="15"/>
<feColorMatrix type="matrix" values="0 0 0 0 0 0 0 0 0 0 0 0 0 0 0 0 0 0 0.2 0"/>
<feBlend mode="normal" in2="BackgroundImageFix" result="effect1_dropShadow"/>
<feBlend mode="normal" in="SourceGraphic" in2="effect1_dropShadow" result="shape"/>
</filter>
</defs>
</svg>
